<mxfile host="65bd71144e">
    <diagram id="ZsCRAaijLn9_dOa4LMAb" name="Page-1">
        <mxGraphModel dx="1074" dy="1185" grid="1" gridSize="10" guides="1" tooltips="1" connect="1" arrows="1" fold="1" page="0" pageScale="1" pageWidth="850" pageHeight="1100" background="#FFFFFF" math="0" shadow="0">
            <root>
                <mxCell id="0"/>
                <mxCell id="1" parent="0"/>
                <mxCell id="3" value="" style="shape=table;startSize=0;container=1;collapsible=0;childLayout=tableLayout;shadow=0;strokeColor=none;strokeWidth=3;fillColor=none;swimlaneFillColor=default;" parent="1" vertex="1">
                    <mxGeometry x="320" y="120" width="100" height="100" as="geometry"/>
                </mxCell>
                <mxCell id="4" value="" style="shape=partialRectangle;collapsible=0;dropTarget=0;pointerEvents=0;fillColor=none;top=0;left=0;bottom=0;right=0;points=[[0,0.5],[1,0.5]];portConstraint=eastwest;shadow=1;strokeColor=#FFFFFF;strokeWidth=3;" parent="3" vertex="1">
                    <mxGeometry width="100" height="20" as="geometry"/>
                </mxCell>
                <mxCell id="5" value="11" style="shape=partialRectangle;html=1;whiteSpace=wrap;connectable=0;overflow=hidden;fillColor=none;top=0;left=0;bottom=0;right=0;pointerEvents=1;shadow=1;strokeColor=#FFFFFF;strokeWidth=3;" parent="4" vertex="1">
                    <mxGeometry width="20" height="20" as="geometry">
                        <mxRectangle width="20" height="20" as="alternateBounds"/>
                    </mxGeometry>
                </mxCell>
                <mxCell id="6" value="12" style="shape=partialRectangle;html=1;whiteSpace=wrap;connectable=0;overflow=hidden;fillColor=none;top=0;left=0;bottom=0;right=0;pointerEvents=1;shadow=1;strokeColor=#FFFFFF;strokeWidth=3;" parent="4" vertex="1">
                    <mxGeometry x="20" width="20" height="20" as="geometry">
                        <mxRectangle width="20" height="20" as="alternateBounds"/>
                    </mxGeometry>
                </mxCell>
                <mxCell id="7" value="13" style="shape=partialRectangle;html=1;whiteSpace=wrap;connectable=0;overflow=hidden;fillColor=none;top=0;left=0;bottom=0;right=0;pointerEvents=1;shadow=1;strokeColor=#FFFFFF;strokeWidth=3;" parent="4" vertex="1">
                    <mxGeometry x="40" width="20" height="20" as="geometry">
                        <mxRectangle width="20" height="20" as="alternateBounds"/>
                    </mxGeometry>
                </mxCell>
                <mxCell id="8" value="14" style="shape=partialRectangle;html=1;whiteSpace=wrap;connectable=0;overflow=hidden;fillColor=none;top=0;left=0;bottom=0;right=0;pointerEvents=1;shadow=1;strokeColor=#FFFFFF;strokeWidth=3;" parent="4" vertex="1">
                    <mxGeometry x="60" width="20" height="20" as="geometry">
                        <mxRectangle width="20" height="20" as="alternateBounds"/>
                    </mxGeometry>
                </mxCell>
                <mxCell id="9" value="15" style="shape=partialRectangle;html=1;whiteSpace=wrap;connectable=0;overflow=hidden;fillColor=none;top=0;left=0;bottom=0;right=0;pointerEvents=1;shadow=1;strokeColor=#FFFFFF;strokeWidth=3;" parent="4" vertex="1">
                    <mxGeometry x="80" width="20" height="20" as="geometry">
                        <mxRectangle width="20" height="20" as="alternateBounds"/>
                    </mxGeometry>
                </mxCell>
                <mxCell id="10" value="" style="shape=partialRectangle;collapsible=0;dropTarget=0;pointerEvents=0;fillColor=none;top=0;left=0;bottom=0;right=0;points=[[0,0.5],[1,0.5]];portConstraint=eastwest;shadow=1;strokeColor=#FFFFFF;strokeWidth=3;" parent="3" vertex="1">
                    <mxGeometry y="20" width="100" height="20" as="geometry"/>
                </mxCell>
                <mxCell id="11" value="21" style="shape=partialRectangle;html=1;whiteSpace=wrap;connectable=0;overflow=hidden;fillColor=none;top=0;left=0;bottom=0;right=0;pointerEvents=1;shadow=1;strokeColor=#FFFFFF;strokeWidth=3;" parent="10" vertex="1">
                    <mxGeometry width="20" height="20" as="geometry">
                        <mxRectangle width="20" height="20" as="alternateBounds"/>
                    </mxGeometry>
                </mxCell>
                <mxCell id="12" value="22" style="shape=partialRectangle;html=1;whiteSpace=wrap;connectable=0;overflow=hidden;fillColor=none;top=0;left=0;bottom=0;right=0;pointerEvents=1;shadow=1;strokeColor=#FFFFFF;strokeWidth=3;" parent="10" vertex="1">
                    <mxGeometry x="20" width="20" height="20" as="geometry">
                        <mxRectangle width="20" height="20" as="alternateBounds"/>
                    </mxGeometry>
                </mxCell>
                <mxCell id="13" value="23" style="shape=partialRectangle;html=1;whiteSpace=wrap;connectable=0;overflow=hidden;fillColor=none;top=0;left=0;bottom=0;right=0;pointerEvents=1;shadow=1;strokeColor=#FFFFFF;strokeWidth=3;" parent="10" vertex="1">
                    <mxGeometry x="40" width="20" height="20" as="geometry">
                        <mxRectangle width="20" height="20" as="alternateBounds"/>
                    </mxGeometry>
                </mxCell>
                <mxCell id="14" value="24" style="shape=partialRectangle;html=1;whiteSpace=wrap;connectable=0;overflow=hidden;fillColor=none;top=0;left=0;bottom=0;right=0;pointerEvents=1;shadow=1;strokeColor=#FFFFFF;strokeWidth=3;" parent="10" vertex="1">
                    <mxGeometry x="60" width="20" height="20" as="geometry">
                        <mxRectangle width="20" height="20" as="alternateBounds"/>
                    </mxGeometry>
                </mxCell>
                <mxCell id="15" value="25" style="shape=partialRectangle;html=1;whiteSpace=wrap;connectable=0;overflow=hidden;fillColor=none;top=0;left=0;bottom=0;right=0;pointerEvents=1;shadow=1;strokeColor=#FFFFFF;strokeWidth=3;" parent="10" vertex="1">
                    <mxGeometry x="80" width="20" height="20" as="geometry">
                        <mxRectangle width="20" height="20" as="alternateBounds"/>
                    </mxGeometry>
                </mxCell>
                <mxCell id="16" value="" style="shape=partialRectangle;collapsible=0;dropTarget=0;pointerEvents=0;fillColor=none;top=0;left=0;bottom=0;right=0;points=[[0,0.5],[1,0.5]];portConstraint=eastwest;shadow=1;strokeColor=#FFFFFF;strokeWidth=3;" parent="3" vertex="1">
                    <mxGeometry y="40" width="100" height="20" as="geometry"/>
                </mxCell>
                <mxCell id="17" value="31" style="shape=partialRectangle;html=1;whiteSpace=wrap;connectable=0;overflow=hidden;fillColor=none;top=0;left=0;bottom=0;right=0;pointerEvents=1;shadow=1;strokeColor=#FFFFFF;strokeWidth=3;" parent="16" vertex="1">
                    <mxGeometry width="20" height="20" as="geometry">
                        <mxRectangle width="20" height="20" as="alternateBounds"/>
                    </mxGeometry>
                </mxCell>
                <mxCell id="18" value="32" style="shape=partialRectangle;html=1;whiteSpace=wrap;connectable=0;overflow=hidden;fillColor=none;top=0;left=0;bottom=0;right=0;pointerEvents=1;shadow=1;strokeColor=#FFFFFF;strokeWidth=3;" parent="16" vertex="1">
                    <mxGeometry x="20" width="20" height="20" as="geometry">
                        <mxRectangle width="20" height="20" as="alternateBounds"/>
                    </mxGeometry>
                </mxCell>
                <mxCell id="19" value="33" style="shape=partialRectangle;html=1;whiteSpace=wrap;connectable=0;overflow=hidden;fillColor=none;top=0;left=0;bottom=0;right=0;pointerEvents=1;shadow=1;strokeColor=#FFFFFF;strokeWidth=3;" parent="16" vertex="1">
                    <mxGeometry x="40" width="20" height="20" as="geometry">
                        <mxRectangle width="20" height="20" as="alternateBounds"/>
                    </mxGeometry>
                </mxCell>
                <mxCell id="20" value="34" style="shape=partialRectangle;html=1;whiteSpace=wrap;connectable=0;overflow=hidden;fillColor=none;top=0;left=0;bottom=0;right=0;pointerEvents=1;shadow=1;strokeColor=#FFFFFF;strokeWidth=3;" parent="16" vertex="1">
                    <mxGeometry x="60" width="20" height="20" as="geometry">
                        <mxRectangle width="20" height="20" as="alternateBounds"/>
                    </mxGeometry>
                </mxCell>
                <mxCell id="21" value="35" style="shape=partialRectangle;html=1;whiteSpace=wrap;connectable=0;overflow=hidden;fillColor=none;top=0;left=0;bottom=0;right=0;pointerEvents=1;shadow=1;strokeColor=#FFFFFF;strokeWidth=3;" parent="16" vertex="1">
                    <mxGeometry x="80" width="20" height="20" as="geometry">
                        <mxRectangle width="20" height="20" as="alternateBounds"/>
                    </mxGeometry>
                </mxCell>
                <mxCell id="22" value="" style="shape=partialRectangle;collapsible=0;dropTarget=0;pointerEvents=0;fillColor=none;top=0;left=0;bottom=0;right=0;points=[[0,0.5],[1,0.5]];portConstraint=eastwest;shadow=1;strokeColor=#FFFFFF;strokeWidth=3;" parent="3" vertex="1">
                    <mxGeometry y="60" width="100" height="20" as="geometry"/>
                </mxCell>
                <mxCell id="23" value="41" style="shape=partialRectangle;html=1;whiteSpace=wrap;connectable=0;overflow=hidden;fillColor=none;top=0;left=0;bottom=0;right=0;pointerEvents=1;shadow=1;strokeColor=#FFFFFF;strokeWidth=3;" parent="22" vertex="1">
                    <mxGeometry width="20" height="20" as="geometry">
                        <mxRectangle width="20" height="20" as="alternateBounds"/>
                    </mxGeometry>
                </mxCell>
                <mxCell id="24" value="42" style="shape=partialRectangle;html=1;whiteSpace=wrap;connectable=0;overflow=hidden;fillColor=none;top=0;left=0;bottom=0;right=0;pointerEvents=1;shadow=1;strokeColor=#FFFFFF;strokeWidth=3;" parent="22" vertex="1">
                    <mxGeometry x="20" width="20" height="20" as="geometry">
                        <mxRectangle width="20" height="20" as="alternateBounds"/>
                    </mxGeometry>
                </mxCell>
                <mxCell id="25" value="43" style="shape=partialRectangle;html=1;whiteSpace=wrap;connectable=0;overflow=hidden;fillColor=none;top=0;left=0;bottom=0;right=0;pointerEvents=1;shadow=1;strokeColor=#FFFFFF;strokeWidth=3;" parent="22" vertex="1">
                    <mxGeometry x="40" width="20" height="20" as="geometry">
                        <mxRectangle width="20" height="20" as="alternateBounds"/>
                    </mxGeometry>
                </mxCell>
                <mxCell id="26" value="44" style="shape=partialRectangle;html=1;whiteSpace=wrap;connectable=0;overflow=hidden;fillColor=none;top=0;left=0;bottom=0;right=0;pointerEvents=1;shadow=1;strokeColor=#FFFFFF;strokeWidth=3;" parent="22" vertex="1">
                    <mxGeometry x="60" width="20" height="20" as="geometry">
                        <mxRectangle width="20" height="20" as="alternateBounds"/>
                    </mxGeometry>
                </mxCell>
                <mxCell id="27" value="45" style="shape=partialRectangle;html=1;whiteSpace=wrap;connectable=0;overflow=hidden;fillColor=none;top=0;left=0;bottom=0;right=0;pointerEvents=1;shadow=1;strokeColor=#FFFFFF;strokeWidth=3;" parent="22" vertex="1">
                    <mxGeometry x="80" width="20" height="20" as="geometry">
                        <mxRectangle width="20" height="20" as="alternateBounds"/>
                    </mxGeometry>
                </mxCell>
                <mxCell id="28" value="" style="shape=partialRectangle;collapsible=0;dropTarget=0;pointerEvents=0;fillColor=none;top=0;left=0;bottom=0;right=0;points=[[0,0.5],[1,0.5]];portConstraint=eastwest;shadow=1;strokeColor=#FFFFFF;strokeWidth=3;" parent="3" vertex="1">
                    <mxGeometry y="80" width="100" height="20" as="geometry"/>
                </mxCell>
                <mxCell id="29" value="51" style="shape=partialRectangle;html=1;whiteSpace=wrap;connectable=0;overflow=hidden;fillColor=none;top=0;left=0;bottom=0;right=0;pointerEvents=1;shadow=1;strokeColor=#FFFFFF;strokeWidth=3;" parent="28" vertex="1">
                    <mxGeometry width="20" height="20" as="geometry">
                        <mxRectangle width="20" height="20" as="alternateBounds"/>
                    </mxGeometry>
                </mxCell>
                <mxCell id="30" value="52" style="shape=partialRectangle;html=1;whiteSpace=wrap;connectable=0;overflow=hidden;fillColor=none;top=0;left=0;bottom=0;right=0;pointerEvents=1;shadow=1;strokeColor=#FFFFFF;strokeWidth=3;" parent="28" vertex="1">
                    <mxGeometry x="20" width="20" height="20" as="geometry">
                        <mxRectangle width="20" height="20" as="alternateBounds"/>
                    </mxGeometry>
                </mxCell>
                <mxCell id="31" value="53" style="shape=partialRectangle;html=1;whiteSpace=wrap;connectable=0;overflow=hidden;fillColor=none;top=0;left=0;bottom=0;right=0;pointerEvents=1;shadow=1;strokeColor=#FFFFFF;strokeWidth=3;" parent="28" vertex="1">
                    <mxGeometry x="40" width="20" height="20" as="geometry">
                        <mxRectangle width="20" height="20" as="alternateBounds"/>
                    </mxGeometry>
                </mxCell>
                <mxCell id="32" value="54" style="shape=partialRectangle;html=1;whiteSpace=wrap;connectable=0;overflow=hidden;fillColor=none;top=0;left=0;bottom=0;right=0;pointerEvents=1;shadow=1;strokeColor=#FFFFFF;strokeWidth=3;" parent="28" vertex="1">
                    <mxGeometry x="60" width="20" height="20" as="geometry">
                        <mxRectangle width="20" height="20" as="alternateBounds"/>
                    </mxGeometry>
                </mxCell>
                <mxCell id="33" value="55" style="shape=partialRectangle;html=1;whiteSpace=wrap;connectable=0;overflow=hidden;fillColor=none;top=0;left=0;bottom=0;right=0;pointerEvents=1;shadow=1;strokeColor=#FFFFFF;strokeWidth=3;" parent="28" vertex="1">
                    <mxGeometry x="80" width="20" height="20" as="geometry">
                        <mxRectangle width="20" height="20" as="alternateBounds"/>
                    </mxGeometry>
                </mxCell>
                <mxCell id="41" style="edgeStyle=none;html=1;" parent="1" source="34" edge="1">
                    <mxGeometry relative="1" as="geometry">
                        <mxPoint x="200" y="40" as="targetPoint"/>
                        <Array as="points">
                            <mxPoint x="200" y="130"/>
                        </Array>
                    </mxGeometry>
                </mxCell>
                <mxCell id="34" value="" style="rounded=0;whiteSpace=wrap;html=1;fillColor=none;strokeColor=#FF0000;" parent="1" vertex="1">
                    <mxGeometry x="320" y="120" width="60" height="20" as="geometry"/>
                </mxCell>
                <mxCell id="45" style="edgeStyle=none;html=1;" parent="1" source="35" edge="1">
                    <mxGeometry relative="1" as="geometry">
                        <mxPoint x="350" y="40" as="targetPoint"/>
                    </mxGeometry>
                </mxCell>
                <mxCell id="35" value="" style="rounded=0;whiteSpace=wrap;html=1;fillColor=none;fontColor=#ffffff;strokeColor=#2D7600;" parent="1" vertex="1">
                    <mxGeometry x="320" y="140" width="60" height="20" as="geometry"/>
                </mxCell>
                <mxCell id="49" style="edgeStyle=none;html=1;" parent="1" source="36" edge="1">
                    <mxGeometry relative="1" as="geometry">
                        <mxPoint x="500" y="40" as="targetPoint"/>
                        <Array as="points">
                            <mxPoint x="350" y="150"/>
                            <mxPoint x="500" y="150"/>
                        </Array>
                    </mxGeometry>
                </mxCell>
                <mxCell id="36" value="" style="rounded=0;whiteSpace=wrap;html=1;fillColor=none;fontColor=#ffffff;strokeColor=#001DBC;" parent="1" vertex="1">
                    <mxGeometry x="320" y="160" width="60" height="20" as="geometry"/>
                </mxCell>
                <mxCell id="42" style="edgeStyle=none;html=1;" parent="1" source="38" edge="1">
                    <mxGeometry relative="1" as="geometry">
                        <mxPoint x="240" y="40" as="targetPoint"/>
                        <Array as="points">
                            <mxPoint x="400" y="100"/>
                            <mxPoint x="240" y="100"/>
                        </Array>
                    </mxGeometry>
                </mxCell>
                <mxCell id="38" value="" style="rounded=0;whiteSpace=wrap;html=1;strokeColor=#FF0000;fillColor=none;" parent="1" vertex="1">
                    <mxGeometry x="380" y="120" width="40" height="20" as="geometry"/>
                </mxCell>
                <mxCell id="46" style="edgeStyle=none;html=1;" parent="1" source="39" edge="1">
                    <mxGeometry relative="1" as="geometry">
                        <mxPoint x="390" y="40" as="targetPoint"/>
                        <Array as="points">
                            <mxPoint x="400" y="130"/>
                            <mxPoint x="430" y="130"/>
                            <mxPoint x="430" y="80"/>
                            <mxPoint x="390" y="80"/>
                        </Array>
                    </mxGeometry>
                </mxCell>
                <mxCell id="39" value="" style="rounded=0;whiteSpace=wrap;html=1;fillColor=none;fontColor=#ffffff;strokeColor=#2D7600;" parent="1" vertex="1">
                    <mxGeometry x="380" y="140" width="40" height="20" as="geometry"/>
                </mxCell>
                <mxCell id="50" style="edgeStyle=none;html=1;" parent="1" source="40" edge="1">
                    <mxGeometry relative="1" as="geometry">
                        <mxPoint x="540" y="40" as="targetPoint"/>
                        <Array as="points">
                            <mxPoint x="540" y="170"/>
                        </Array>
                    </mxGeometry>
                </mxCell>
                <mxCell id="40" value="" style="rounded=0;whiteSpace=wrap;html=1;fillColor=none;fontColor=#ffffff;strokeColor=#001DBC;" parent="1" vertex="1">
                    <mxGeometry x="380" y="160" width="40" height="20" as="geometry"/>
                </mxCell>
                <mxCell id="43" value="Pox1" style="rounded=0;whiteSpace=wrap;html=1;strokeColor=#FF0000;fillColor=none;fontColor=default;" parent="1" vertex="1">
                    <mxGeometry x="160" y="-20" width="120" height="60" as="geometry"/>
                </mxCell>
                <mxCell id="44" value="Pox2" style="rounded=0;whiteSpace=wrap;html=1;strokeColor=#2D7600;fillColor=none;fontColor=default;" parent="1" vertex="1">
                    <mxGeometry x="310" y="-20" width="120" height="60" as="geometry"/>
                </mxCell>
                <mxCell id="47" value="Pox3(Last)" style="rounded=0;whiteSpace=wrap;html=1;strokeColor=#001DBC;fillColor=none;fontColor=default;" parent="1" vertex="1">
                    <mxGeometry x="460" y="-20" width="120" height="60" as="geometry"/>
                </mxCell>
                <mxCell id="56" style="edgeStyle=none;html=1;dashed=1;" parent="1" source="54" edge="1">
                    <mxGeometry relative="1" as="geometry">
                        <mxPoint x="500" y="40" as="targetPoint"/>
                        <Array as="points">
                            <mxPoint x="500" y="190"/>
                        </Array>
                    </mxGeometry>
                </mxCell>
                <mxCell id="54" value="" style="rounded=0;whiteSpace=wrap;html=1;fillColor=none;fontColor=#ffffff;strokeColor=#001DBC;" parent="1" vertex="1">
                    <mxGeometry x="320" y="180" width="60" height="20" as="geometry"/>
                </mxCell>
                <mxCell id="57" style="edgeStyle=none;html=1;dashed=1;" parent="1" source="55" edge="1">
                    <mxGeometry relative="1" as="geometry">
                        <mxPoint x="540" y="40" as="targetPoint"/>
                        <Array as="points">
                            <mxPoint x="540" y="190"/>
                        </Array>
                    </mxGeometry>
                </mxCell>
                <mxCell id="55" value="" style="rounded=0;whiteSpace=wrap;html=1;fillColor=none;fontColor=#ffffff;strokeColor=#001DBC;" parent="1" vertex="1">
                    <mxGeometry x="380" y="180" width="40" height="20" as="geometry"/>
                </mxCell>
            </root>
        </mxGraphModel>
    </diagram>
</mxfile>